<svg width="1360" height="166" viewBox="0 0 1360 166" fill="none" xmlns="http://www.w3.org/2000/svg">
<path d="M32.7081 152.487C10.8216 139.675 0 118.699 0 89.558C0 66.0695 7.78185 45.5955 23.3455 28.136C40.0036 9.42054 61.1605 0 86.6947 0C98.9754 0 110.527 2.38655 121.227 7.03402C134.359 12.812 140.924 20.5996 140.924 30.397C140.924 35.6725 138.493 39.4407 133.629 41.8272C130.224 43.4601 126.09 44.3394 121.348 44.3394C118.065 44.3394 113.445 42.8321 107.365 39.9431C101.286 37.0542 96.6652 35.5469 93.3822 35.5469C79.3992 35.5469 68.6991 41.3248 61.2821 53.0063C55.2025 62.4268 52.1627 73.8571 52.1627 87.4227C52.1627 114.303 67.9696 127.743 99.4618 127.743C102.745 127.743 107.608 126.863 114.053 124.979C120.497 123.095 122.929 122.718 128.644 122.216C132.17 121.839 135.696 124.1 138.371 126.612C141.289 129.376 144.086 133.395 144.086 137.289C144.086 144.323 137.641 150.98 124.631 157.386C112.958 163.164 104.569 165.676 93.8686 165.927C72.9548 166.681 48.2718 161.531 32.7081 152.487ZM602.364 153.743C594.704 146.207 590.813 135.153 590.813 120.457C590.813 102.747 601.756 91.4421 623.764 86.5434C629.844 85.413 639.085 83.5289 651.244 81.0167C660.971 79.007 665.835 76.9973 665.835 75.2388C665.835 72.8522 663.768 70.7169 659.755 68.9584C656.35 67.4511 653.432 66.6975 651.122 66.6975C646.137 66.6975 640.787 67.3255 635.072 68.5816C631.667 69.3353 624.737 72.7267 619.387 72.3498C614.888 72.0986 609.538 71.2194 606.498 67.7023C604.188 65.0646 603.215 60.6683 604.066 57.1513C605.768 50.2429 608.565 46.6003 618.049 41.1992C625.831 36.803 633.127 34.6676 639.814 34.6676C661.701 34.6676 678.723 37.9334 691.126 44.2138C709.972 53.8855 719.335 70.8425 719.335 95.2104C719.335 138.922 710.094 160.777 691.49 160.777C685.411 160.777 681.277 159.773 679.21 157.888C678.602 157.386 676.291 153.743 672.157 147.212C668.51 148.091 661.457 151.357 651.244 156.758C642.611 161.405 635.437 163.666 629.479 163.666C618.414 163.918 609.295 160.526 602.364 153.743ZM1243.03 153.743C1235.25 146.207 1231.48 135.153 1231.48 120.457C1231.48 102.747 1242.54 91.4421 1264.43 86.5434C1270.51 85.413 1279.75 83.5289 1291.91 81.0167C1301.64 79.007 1306.5 76.9973 1306.5 75.2388C1306.5 72.8522 1304.43 70.7169 1300.42 68.9584C1297.02 67.4511 1294.1 66.6975 1291.79 66.6975C1286.8 66.6975 1281.45 67.3255 1275.74 68.5816C1272.33 69.3353 1265.4 72.7267 1260.05 72.3498C1255.43 72.0986 1250.2 71.2194 1247.16 67.7023C1244.85 65.0646 1243.88 60.6683 1244.73 57.1513C1246.43 50.2429 1249.23 46.6003 1258.84 41.1992C1266.62 36.803 1273.91 34.6676 1280.48 34.6676C1302.37 34.6676 1319.39 37.9334 1331.79 44.2138C1350.64 53.8855 1360 70.8425 1360 95.2104C1360 138.922 1350.76 160.777 1332.16 160.777C1326.08 160.777 1321.94 159.773 1319.87 157.888C1319.27 157.386 1316.96 153.743 1312.82 147.212C1309.05 148.091 1302.12 151.357 1291.91 156.758C1283.28 161.405 1276.1 163.666 1270.14 163.666C1259.08 163.918 1249.96 160.526 1243.03 153.743ZM535.002 127.994C535.002 125.482 535.124 121.714 535.367 116.564C535.61 111.539 535.732 107.645 535.732 105.133C535.732 101.491 535.245 98.3505 534.151 95.7128C530.747 98.3505 527.585 104.003 524.789 112.67C521.87 121.714 520.776 124.854 517.007 129.627C511.292 136.786 499.376 139.299 490.621 137.038C483.083 135.028 480.043 131.888 473.72 120.332C473.234 119.327 469.464 111.414 462.655 96.8433C462.169 102.621 461.926 106.138 461.926 107.269C461.926 112.167 462.777 119.578 464.601 129.376C466.425 139.173 469.708 145.328 467.397 152.362C465.938 156.758 463.142 157.386 460.345 158.893C456.089 161.28 449.523 162.285 446.24 162.536C441.255 162.913 434.689 162.661 431.65 158.642C427.029 152.487 427.394 139.55 426.299 118.825C425.448 102.872 424.962 88.5532 424.962 75.9924C424.962 63.3061 426.907 54.0111 430.92 48.2332C436.027 40.6968 445.389 36.9286 458.643 36.9286C465.817 36.9286 475.544 48.61 488.068 72.0986C489.892 75.6156 493.296 81.896 498.16 91.0653C501.321 89.1812 504.848 83.7801 508.738 74.862C514.332 62.1756 517.858 54.5136 519.439 51.8758C524.302 43.837 529.774 39.1895 535.975 38.059C539.744 37.3054 544.243 36.8029 549.593 36.4261L556.038 36.1749C568.561 35.6725 575.371 51.6246 575.371 69.4609C575.371 72.4754 575.127 76.9973 574.884 83.0265C574.519 89.0556 574.398 93.5775 574.398 96.592C574.398 99.1042 574.763 102.998 575.492 108.148C576.222 113.298 576.586 117.066 576.586 119.704V140.303C576.586 146.709 573.911 152.362 568.318 157.26C563.455 161.531 558.469 163.792 553.363 163.792C541.203 163.792 535.002 151.859 535.002 127.994ZM178.496 143.946C178.496 142.564 179.347 71.4706 179.347 70.0889C169.742 66.5719 158.069 71.8474 150.652 65.3158C147.247 62.3012 146.396 58.6586 146.396 51.8758C146.396 47.354 148.098 44.9674 150.652 42.8321C154.299 39.9431 159.65 40.1943 164.27 40.0687L250.357 37.431C257.409 37.1798 266.042 43.7114 266.042 52.127C266.042 56.6489 265.312 59.6635 262.881 62.1756C259.111 66.1951 253.761 67.7023 247.682 67.7023C243.426 67.7023 235.644 67.5768 234.793 67.5768H230.051C227.619 67.5768 226.282 130.129 225.795 138.042C225.187 147.589 225.43 148.97 222.391 152.99C220.202 156.004 216.311 158.265 212.663 158.391C193.574 159.27 177.645 153.869 178.496 143.946ZM753.988 143.946C753.988 142.564 754.839 71.4706 754.839 70.0889C745.234 66.5719 733.561 71.8474 726.144 65.3158C722.739 62.3012 721.888 58.6586 721.888 51.8758C721.888 47.354 723.591 44.9674 726.144 42.8321C729.792 39.9431 735.142 40.1943 739.762 40.0687L825.849 37.431C832.901 37.1798 841.534 43.7114 841.534 52.127C841.534 56.6489 840.805 59.6635 838.373 62.1756C834.603 66.1951 829.375 67.7023 823.174 67.7023C818.918 67.7023 811.136 67.5768 810.285 67.5768H805.543C803.111 67.5768 801.774 130.129 801.287 138.042C800.679 147.589 800.923 148.97 797.883 152.99C795.694 156.004 791.803 158.265 788.156 158.391C769.066 159.27 753.259 153.869 753.988 143.946ZM1108.55 152.99C1101.86 149.975 1096.88 145.83 1093.47 140.555C1081.19 148.217 1071.71 152.99 1064.9 155.125C1057.12 157.512 1042.28 157.888 1031.7 154.497C1025.02 152.362 1019.79 147.714 1014.07 142.439C1008.97 137.54 1005.32 132.516 1003.13 127.366C1000.94 122.09 999.846 115.433 999.846 107.143C999.846 63.0549 1007.75 40.948 1023.31 40.948C1032.8 40.948 1039.61 42.8321 1043.74 46.4747C1048.97 51.2478 1051.64 59.5379 1051.64 71.4706C1051.64 73.1035 1051.64 75.6156 1051.52 79.007C1051.4 82.3984 1051.4 84.9106 1051.4 86.5434C1051.4 110.283 1058.57 122.09 1072.8 122.09C1076.57 122.09 1079.73 118.95 1082.53 112.67C1084.84 107.394 1085.93 102.747 1085.93 98.7274C1085.93 95.2104 1085.32 89.9349 1084.23 83.0265C1083.14 76.118 1082.65 70.9682 1082.65 67.3255C1082.65 62.4269 1083.38 53.2575 1087.88 48.9869C1095.3 41.8272 1103.44 42.2041 1117.79 42.2041C1127.27 42.2041 1133.23 49.1125 1135.54 63.0549C1135.91 70.3401 1136.64 83.2777 1137.85 101.868C1138.83 115.81 1142.96 122.718 1150.38 122.718C1160.1 122.718 1164.97 114.177 1164.97 97.0945C1164.97 94.4567 1164.72 90.4373 1164.36 85.0362C1163.87 79.635 1163.75 75.6156 1163.75 72.8523C1163.75 61.2964 1165.09 52.7551 1167.89 47.4796C1172.02 39.4407 1179.68 35.4213 1190.99 35.4213C1199.5 35.4213 1205.46 38.9383 1209.1 46.0979C1212.14 52.127 1213.73 61.0452 1213.73 72.8523V103.124C1213.73 137.163 1204.24 154.12 1185.39 154.12C1180.77 154.12 1178.71 153.115 1176.15 150.98C1173.97 149.096 1172.87 148.468 1171.78 143.192C1164.12 148.593 1156.7 152.236 1149.53 154.246C1143.2 156.004 1135.42 156.884 1125.94 156.884C1120.22 157.009 1114.39 155.753 1108.55 152.99ZM271.635 93.5775C271.635 48.1076 296.318 25.3727 345.806 25.3727C361.856 25.3727 376.569 30.397 389.7 40.4456C405.386 52.3783 413.168 68.456 413.168 88.4276C413.168 98.853 410.128 109.655 404.048 120.709C398.82 130.38 392.375 138.419 384.958 144.574C375.474 152.487 365.625 156.381 355.412 156.381H339.605C294.13 156.507 271.635 135.53 271.635 93.5775ZM845.911 93.5775C845.911 48.1076 870.595 25.3727 920.082 25.3727C936.132 25.3727 950.845 30.397 963.977 40.4456C979.662 52.3783 987.444 68.456 987.444 88.4276C987.444 98.853 984.404 109.655 978.325 120.709C973.096 130.38 966.652 138.419 959.113 144.574C949.629 152.487 939.78 156.381 929.566 156.381H913.759C868.406 156.507 845.911 135.53 845.911 93.5775ZM660.12 128.245C664.497 125.482 666.686 120.332 666.686 112.921C666.686 112.167 666.443 111.037 665.956 109.53C665.47 108.022 665.105 107.017 664.983 106.515C655.256 108.65 648.812 110.409 645.894 111.916C638.963 115.308 635.437 119.955 635.437 126.235C635.437 127.868 637.017 129.124 640.057 130.004C642.124 130.632 644.191 131.008 646.137 131.008C652.581 130.883 657.323 130.004 660.12 128.245ZM1300.78 128.245C1305.16 125.482 1307.35 120.332 1307.35 112.921C1307.35 112.167 1307.11 111.037 1306.5 109.53C1306.01 108.022 1305.65 107.017 1305.53 106.515C1295.8 108.65 1289.36 110.409 1286.44 111.916C1279.51 115.308 1275.98 119.955 1275.98 126.235C1275.98 127.868 1277.56 129.124 1280.6 130.004C1282.67 130.632 1284.73 131.008 1286.8 131.008C1293.37 130.883 1297.99 130.004 1300.78 128.245ZM359.181 108.776C364.166 100.737 366.598 93.4519 366.598 86.7947C366.598 79.3838 363.315 72.601 356.871 66.5719C350.913 60.9196 345.076 58.1562 339.24 58.1562C335.228 58.1562 331.215 60.4171 327.324 65.0646C323.433 69.7121 320.758 74.6108 319.542 80.0119C318.691 83.6545 317.84 92.0702 318.205 98.2249C318.448 102.872 318.813 107.645 320.88 111.791C322.825 115.684 325.743 119.704 329.513 121.211C331.58 122.09 335.349 122.593 340.821 122.593C347.63 122.342 353.709 117.82 359.181 108.776ZM933.457 108.776C938.443 100.737 940.874 93.4519 940.874 86.7947C940.874 79.3838 937.591 72.601 931.147 66.5719C925.189 60.9196 919.353 58.1562 913.516 58.1562C909.504 58.1562 905.491 60.4171 901.6 65.0646C897.588 69.7121 895.034 74.6108 893.819 80.0119C892.967 83.6545 892.116 92.0702 892.481 98.2249C892.724 102.872 893.089 107.645 895.156 111.791C897.101 115.684 900.02 119.704 903.789 121.211C905.856 122.09 909.625 122.593 915.097 122.593C921.906 122.342 927.986 117.82 933.457 108.776Z" fill="#FAFCFF"/>
</svg>
