<svg width="21" height="13" viewBox="0 0 21 13" fill="none" xmlns="http://www.w3.org/2000/svg">
<path d="M10.5001 13C5.71792 13 1.80296 9.08917 0.341594 7.40783C-0.112647 6.87014 -0.112647 6.13022 0.334329 5.60047C1.80296 3.91083 5.71907 0 10.5001 0C15.2834 0 19.1976 3.91083 20.6582 5.59217C21.1124 6.1295 21.1128 6.86942 20.6662 7.39953C19.1972 9.08917 15.2811 13 10.5001 13ZM10.5001 1.44444C6.2559 1.44444 2.55621 5.32061 1.52346 6.50867C2.55621 7.67939 6.25514 11.5556 10.5001 11.5556C14.7442 11.5556 18.4439 7.67939 19.4767 6.49133C18.4439 5.32061 14.7462 1.44444 10.5001 1.44444Z" fill="white"/>
<path d="M10.4998 9.75C8.60255 9.75 7.05859 8.29219 7.05859 6.5C7.05859 4.70817 8.60255 3.25 10.4998 3.25C12.3975 3.25 13.941 4.70817 13.941 6.5C13.941 8.29219 12.3975 9.75 10.4998 9.75ZM10.4998 4.69444C9.44565 4.69444 8.58802 5.50442 8.58802 6.5C8.58802 7.49558 9.44565 8.30556 10.4998 8.30556C11.554 8.30556 12.4116 7.49558 12.4116 6.5C12.4116 5.50442 11.554 4.69444 10.4998 4.69444Z" fill="white"/>
</svg>
