<svg width="19" height="22" viewBox="0 0 19 22" fill="none" xmlns="http://www.w3.org/2000/svg">
<path d="M9.35633 10.5975C10.8634 10.5975 12.1682 10.0753 13.2347 9.04505C14.3008 8.015 14.8415 6.75464 14.8415 5.29861C14.8415 3.843 14.301 2.58251 13.2345 1.55207C12.1681 0.522156 10.8632 0 9.35633 0C7.84906 0 6.54434 0.522156 5.47808 1.55225C4.41182 2.58234 3.87109 3.84287 3.87109 5.29861C3.87109 6.75464 4.41178 8.01518 5.47813 9.04527C6.54474 10.0752 7.84959 10.5975 9.35629 10.5975H9.35633ZM6.42189 2.46383C7.24005 1.67342 8.19987 1.28923 9.35633 1.28923C10.5126 1.28923 11.4726 1.67342 12.2909 2.46383C13.1091 3.25437 13.507 4.18172 13.507 5.29856C13.507 6.41575 13.1091 7.34297 12.2909 8.13351C11.4726 8.92409 10.5126 9.30828 9.35633 9.30828C8.20018 9.30828 7.24045 8.92392 6.42189 8.13351C5.60352 7.34314 5.20565 6.41579 5.20565 5.29861C5.20565 4.18172 5.60352 3.25437 6.42189 2.46383ZM18.954 16.9169C18.9232 16.4883 18.861 16.0206 18.7694 15.5268C18.677 15.0293 18.558 14.559 18.4155 14.1292C18.2682 13.6849 18.0682 13.2461 17.8206 12.8257C17.5639 12.3893 17.2624 12.0092 16.9239 11.6966C16.57 11.3694 16.1366 11.1064 15.6355 10.9145C15.1362 10.7238 14.5828 10.6271 13.9909 10.6271C13.7584 10.6271 13.5336 10.7192 13.0994 10.9923C12.7907 11.1865 12.4812 11.3793 12.1707 11.5707C11.8724 11.7543 11.4682 11.9264 10.969 12.0821C10.482 12.2344 9.98754 12.3116 9.49929 12.3116C9.01144 12.3116 8.51692 12.2344 8.02956 12.0821C7.53094 11.9265 7.12662 11.7545 6.82879 11.5708C6.48318 11.3575 6.17049 11.1628 5.89926 10.9921C5.46541 10.719 5.24056 10.6269 5.00811 10.6269C4.41596 10.6269 3.86277 10.7237 3.36358 10.9148C2.86283 11.1063 2.42933 11.3693 2.07505 11.6967C1.73661 12.0096 1.43499 12.3894 1.17853 12.8257C0.93131 13.2461 0.731152 13.6847 0.583792 14.1293C0.441458 14.5592 0.322476 15.0293 0.230047 15.5268C0.138286 16.02 0.0762822 16.4878 0.0455024 16.9174C0.0152564 17.3375 0 17.7748 0 18.2166C0 19.365 0.377897 20.2947 1.1231 20.9803C1.85911 21.657 2.8328 22 4.0172 22H14.9828C16.1668 22 17.1405 21.6569 17.8767 20.9804C18.6221 20.2952 19 19.3652 19 18.2164C18.9998 17.7731 18.9844 17.3359 18.954 16.9169ZM16.9566 20.0463C16.4702 20.4934 15.8246 20.7108 14.9826 20.7108H4.01725C3.17512 20.7108 2.52945 20.4934 2.04329 20.0465C1.56639 19.6078 1.3346 19.0092 1.3346 18.2166C1.3346 17.8043 1.34866 17.3973 1.37686 17.0066C1.40426 16.6232 1.46039 16.2021 1.54366 15.7546C1.62581 15.3126 1.73038 14.8979 1.85479 14.5224C1.97417 14.1624 2.13697 13.8059 2.33886 13.4625C2.53155 13.1352 2.75323 12.8544 2.99787 12.6281C3.22671 12.4165 3.51516 12.2433 3.85499 12.1134C4.16928 11.9931 4.52253 11.9274 4.90599 11.9174C4.95269 11.9415 5.03596 11.9873 5.17077 12.0722C5.44512 12.2449 5.76133 12.442 6.11094 12.6576C6.50502 12.9004 7.01267 13.1196 7.61923 13.3087C8.23932 13.5024 8.87177 13.6008 9.49951 13.6008C10.1273 13.6008 10.7599 13.5024 11.3797 13.3089C11.9867 13.1194 12.4942 12.9004 12.8888 12.6573C13.2466 12.4364 13.5539 12.2451 13.8282 12.0722C13.9631 11.9874 14.0463 11.9414 14.0931 11.9175C14.4767 11.9274 14.8299 11.9931 15.1444 12.1133C15.4841 12.2433 15.7725 12.4166 16.0013 12.6281C16.246 12.8542 16.4677 13.135 16.6603 13.4627C16.8624 13.8059 17.0254 14.1626 17.1446 14.5223C17.2692 14.8983 17.3739 15.3128 17.4559 15.7544C17.539 16.2027 17.5953 16.6241 17.6227 17.0067V17.0071C17.6511 17.3963 17.6653 17.8032 17.6655 18.2166C17.6653 19.0093 17.4335 19.6079 16.9566 20.0463H16.9566Z" fill="white"/>
</svg>
